<?xml version="1.0" encoding="UTF-8"?>
<svg width="40px" height="40px" viewBox="0 0 40 40" version="1.1" xmlns="http://www.w3.org/2000/svg" xmlns:xlink="http://www.w3.org/1999/xlink">
    <!-- Generator: Sketch 53 (72520) - https://sketchapp.com -->
    <title>icons</title>
    <desc>Created with Sketch.</desc>
    <g id="icons" stroke="none" stroke-width="1" fill="none" fill-rule="evenodd">
        <g id="Group-8">
            <rect id="Rectangle" x="0" y="0" width="40" height="40"></rect>
            <g id="Group-7" transform="translate(3.000000, 8.000000)" stroke="#000000" stroke-width="2">
                <path d="M22.8292089,5 C22.723906,4.43473948 22.5625839,4.00065881 22.3167887,3.54106175 C21.8870672,2.73755244 21.2624476,2.11293279 20.4589383,1.68321131 C19.5250794,1.18377812 18.5957324,1 16.4723885,1 L7.52761149,1 C5.40426759,1 4.47492062,1.18377812 3.54106175,1.68321131 C2.73755244,2.11293279 2.11293279,2.73755244 1.68321131,3.54106175 C1.18377812,4.47492062 1,5.40426759 1,7.52761149 L1,13 C1,15.209139 2.790861,17 5,17 L6,17 L6,20.1314829 L10.0375211,17.4398022 C10.248604,17.2990803 10.353325,17.2367469 10.4912635,17.1741511 C10.6444561,17.1046331 10.7991702,17.0577894 10.9651958,17.0306559 C11.0036225,17.0243759 11.0402135,17.0192988 11.0776821,17.0152213 C11.0260233,16.6587247 11,16.2916146 11,15.915829 L11,12.4047497 C11,10.3132572 11.213345,9.23322594 11.7993752,8.13744467 C12.3370581,7.13206506 13.1320651,6.33705811 14.1374447,5.79937522 C15.2332259,5.21334498 16.3132572,5 18.4047497,5 L22.8292089,5 Z M11.289149,19.0042525 C11.2886818,19.0043242 11.2882245,19.0043967 11.2877754,19.0044701 C11.2891228,19.0042499 11.2906665,19.0039384 11.2923366,19.0035567 Z" id="Combined-Shape"></path>
                <path d="M18.1666667,23.8481627 L21.2547443,21.7438099 C21.4412982,21.6166838 21.537439,21.5582993 21.6655092,21.4991177 C21.8092581,21.4326908 21.9553154,21.3876569 22.111512,21.3616014 C22.2506723,21.3383878 22.3629981,21.3324957 22.5887488,21.3324957 L27.5833333,21.3324957 C28.4778409,21.3324957 29.2751162,21.1373428 29.9385282,20.7704746 C30.5764183,20.4177201 31.0852244,19.908914 31.4379789,19.2710239 C31.8048471,18.6076119 32,17.8103366 32,16.915829 L32,13.4047497 C32,11.6163535 31.8487127,10.8504812 31.4369984,10.0806424 C31.0857151,9.42379973 30.5762003,8.91428491 29.9193576,8.56300161 C29.1495188,8.1512873 28.3836465,8 26.5952503,8 L19.4047497,8 C17.6163535,8 16.8504812,8.1512873 16.0806424,8.56300161 C15.4237997,8.91428491 14.9142849,9.42379973 14.5630016,10.0806424 C14.1512873,10.8504812 14,11.6163535 14,13.4047497 L14,18.165829 C14,19.9147307 15.417765,21.3324957 17.1666667,21.3324957 L18.1666667,21.3324957 L18.1666667,23.8481627 Z M22.4419108,23.3341604 C22.4413798,23.3342216 22.44095,23.3342825 22.4405891,23.3343427 C22.4416718,23.3341621 22.4427703,23.3339683 22.4438827,23.333762 Z" id="Rectangle" transform="translate(23.000000, 16.000000) scale(-1, 1) translate(-23.000000, -16.000000) "></path>
            </g>
        </g>
    </g>
</svg>