<?xml version="1.0" encoding="UTF-8"?>
<svg width="40px" height="40px" viewBox="0 0 40 40" version="1.1" xmlns="http://www.w3.org/2000/svg" xmlns:xlink="http://www.w3.org/1999/xlink">
    <!-- Generator: Sketch 53.2 (72643) - https://sketchapp.com -->
    <title>icons</title>
    <desc>Created with Sketch.</desc>
    <g id="icons" stroke="none" stroke-width="1" fill="none" fill-rule="evenodd">
        <circle id="Oval" stroke="#000000" cx="20" cy="20" r="19.5"></circle>
        <g id="instagram" transform="translate(10.000000, 10.000000)" fill="#000000" fill-rule="nonzero">
            <path d="M13.75,0 C17.20125,0 20,2.79875 20,6.25 L20,13.75 C20,17.20125 17.20125,20 13.75,20 L6.25,20 C2.79875,20 0,17.20125 0,13.75 L0,6.25 C0,2.79875 2.79875,0 6.25,0 L13.75,0 Z M10,5 C7.23875,5 5,7.23875 5,10 C5,12.76125 7.23875,15 10,15 C12.76125,15 15,12.76125 15,10 C15,7.23875 12.76125,5 10,5 Z M10,13.125 C8.2775,13.125 6.875,11.7225 6.875,10 C6.875,8.27625 8.2775,6.875 10,6.875 C11.7225,6.875 13.125,8.27625 13.125,10 C13.125,11.7225 11.7225,13.125 10,13.125 Z M15.375,5.29125 C15.7429597,5.29125 16.04125,4.99295971 16.04125,4.625 C16.04125,4.25704029 15.7429597,3.95875 15.375,3.95875 C15.0070403,3.95875 14.70875,4.25704029 14.70875,4.625 C14.70875,4.99295971 15.0070403,5.29125 15.375,5.29125 Z" id="Combined-Shape"></path>
        </g>
    </g>
</svg>