<?xml version="1.0" encoding="UTF-8"?>
<svg width="40px" height="40px" viewBox="0 0 40 40" version="1.1" xmlns="http://www.w3.org/2000/svg" xmlns:xlink="http://www.w3.org/1999/xlink">
    <!-- Generator: Sketch 53.2 (72643) - https://sketchapp.com -->
    <title>icons</title>
    <desc>Created with Sketch.</desc>
    <g id="icons" stroke="none" stroke-width="1" fill="none" fill-rule="evenodd">
        <circle id="Oval" stroke="#000000" cx="20" cy="20" r="19.5"></circle>
        <g id="linkedin-logo" transform="translate(11.000000, 10.000000)" fill="#000000" fill-rule="nonzero">
            <path d="M17.963123,10.4204636 L17.963123,16.9818447 L14.1130441,16.9818447 L14.1130441,10.8599053 C14.1130441,9.32202427 13.5561717,8.27248058 12.1625708,8.27248058 C11.0987332,8.27248058 10.4656427,8.97979612 10.187123,9.66400485 C10.0855545,9.9086068 10.0594107,10.2490607 10.0594107,10.5914539 L10.0594107,16.9818447 L6.20803712,16.9818447 C6.20803712,16.9818447 6.25990719,6.61328883 6.20803712,5.53902913 L10.0590348,5.53902913 L10.0590348,7.16100243 C10.0512251,7.1731335 10.0410766,7.18621359 10.0337262,7.1979733 L10.0590348,7.1979733 L10.0590348,7.16100243 C10.5706775,6.38242718 11.4844176,5.27020631 13.529652,5.27020631 C16.0635592,5.27016505 17.963123,6.90567233 17.963123,10.4204636 Z M2.17933643,0.0230242718 C0.861786543,0.0230242718 0,0.87686165 0,1.99968689 C0,3.09804369 0.836853828,3.97779369 2.1282181,3.97779369 L2.15394432,3.97779369 C3.4970116,3.97779369 4.33227842,3.09820874 4.33227842,1.99968689 C4.30696984,0.87686165 3.4970116,0.0230242718 2.17933643,0.0230242718 Z M0.228737819,16.9818447 L4.07864965,16.9818447 L4.07864965,5.53902913 L0.228737819,5.53902913 L0.228737819,16.9818447 Z" id="LinkedIn"></path>
        </g>
    </g>
</svg>