<?xml version="1.0" encoding="UTF-8"?>
<svg width="40px" height="40px" viewBox="0 0 40 40" version="1.1" xmlns="http://www.w3.org/2000/svg" xmlns:xlink="http://www.w3.org/1999/xlink">
    <!-- Generator: Sketch 53 (72520) - https://sketchapp.com -->
    <title>icons</title>
    <desc>Created with Sketch.</desc>
    <g id="icons" stroke="none" stroke-width="1" fill="none" fill-rule="evenodd">
        <g id="ic-personal">
            <g id="Group-6">
                <rect id="Rectangle" x="0" y="0" width="40" height="40"></rect>
                <g id="Group-5" transform="translate(10.000000, 6.000000)" stroke="#000000" stroke-width="2">
                    <path d="M6.75460192,14 C5.40684761,14 4.3978043,14.2250204 3.54106175,14.6832113 C2.73755244,15.1129328 2.11293279,15.7375524 1.68321131,16.5410617 C1.22502038,17.3978043 1,18.4068476 1,19.7546019 L1,20.2453981 C1,21.5931524 1.22502038,22.6021957 1.68321131,23.4589383 C2.11293279,24.2624476 2.73755244,24.8870672 3.54106175,25.3167887 C4.3978043,25.7749796 5.40684761,26 6.75460192,26 L13.2453981,26 C14.5931524,26 15.6021957,25.7749796 16.4589383,25.3167887 C17.2624476,24.8870672 17.8870672,24.2624476 18.3167887,23.4589383 C18.7749796,22.6021957 19,21.5931524 19,20.2453981 L19,19.7546019 C19,18.4068476 18.7749796,17.3978043 18.3167887,16.5410617 C17.8870672,15.7375524 17.2624476,15.1129328 16.4589383,14.6832113 C15.6021957,14.2250204 14.5931524,14 13.2453981,14 L6.75460192,14 Z" id="Rectangle"></path>
                    <circle id="Oval" cx="10" cy="6" r="5"></circle>
                </g>
            </g>
        </g>
    </g>
</svg>