<?xml version="1.0" encoding="UTF-8"?>
<svg width="40px" height="40px" viewBox="0 0 40 40" version="1.1" xmlns="http://www.w3.org/2000/svg" xmlns:xlink="http://www.w3.org/1999/xlink">
    <!-- Generator: Sketch 53.2 (72643) - https://sketchapp.com -->
    <title>icons</title>
    <desc>Created with Sketch.</desc>
    <g id="icons" stroke="none" stroke-width="1" fill="none" fill-rule="evenodd">
        <circle id="Oval" stroke="#000000" cx="20" cy="20" r="19.5"></circle>
        <path d="M23,8 L23,10.4361148 C23,11.3276335 23.0928256,11.6509198 23.2671327,11.9768457 C23.4414398,12.3027716 23.6972284,12.5585602 24.0231543,12.7328673 C24.3490802,12.9071744 24.6723665,13 25.5638852,13 L28,13 L28,27.4361148 C28,28.3276335 27.9071744,28.6509198 27.7328673,28.9768457 C27.5585602,29.3027716 27.3027716,29.5585602 26.9768457,29.7328673 C26.6509198,29.9071744 26.3276335,30 25.4361148,30 L14.5638852,30 C13.6723665,30 13.3490802,29.9071744 13.0231543,29.7328673 C12.6972284,29.5585602 12.4414398,29.3027716 12.2671327,28.9768457 C12.0928256,28.6509198 12,28.3276335 12,27.4361148 L12,10.5638852 C12,9.67236646 12.0928256,9.34908022 12.2671327,9.0231543 C12.4414398,8.69722837 12.6972284,8.4414398 13.0231543,8.2671327 C13.3490802,8.09282561 13.6723665,8 14.5638852,8 L23,8 Z M19.1849498,21.944265 C18.6378139,21.3629586 17.8612937,21 17,21 C15.3431458,21 14,22.3431458 14,24 C14,25.6568542 15.3431458,27 17,27 C17.8612937,27 18.6378139,26.6370414 19.1849498,26.055735 L18.3605885,25.1006828 C18.0397538,25.4967843 17.5494478,25.75 17,25.75 C16.0335017,25.75 15.25,24.9664983 15.25,24 C15.25,23.0335017 16.0335017,22.25 17,22.25 C17.5494478,22.25 18.0397538,22.5032157 18.3605885,22.8993172 L19.1849498,21.944265 Z M23.5817211,26.8 L26,21.15 L24.651756,21.15 L23,25.0091172 L21.348244,21.15 L20,21.15 L22.4182789,26.8 L23.5817211,26.8 Z M24,8 L28,12 L25,12 C24.4477153,12 24,11.5522847 24,11 L24,8 Z" id="Combined-Shape" fill="#000000"></path>
    </g>
</svg>