<?xml version="1.0" encoding="UTF-8"?>
<svg width="40px" height="40px" viewBox="0 0 40 40" version="1.1" xmlns="http://www.w3.org/2000/svg" xmlns:xlink="http://www.w3.org/1999/xlink">
    <!-- Generator: Sketch 53.2 (72643) - https://sketchapp.com -->
    <title>icons</title>
    <desc>Created with Sketch.</desc>
    <g id="icons" stroke="none" stroke-width="1" fill="none" fill-rule="evenodd">
        <circle id="Oval" stroke="#000000" cx="20" cy="20" r="19.5"></circle>
        <g id="twitter-logo-silhouette" transform="translate(9.000000, 11.000000)" fill="#010002" fill-rule="nonzero">
            <path d="M23,2.26084739 C22.1534722,2.64164859 21.2451601,2.89990361 20.2908105,3.0152008 C21.2652663,2.42280522 22.0111879,1.48318273 22.364719,0.36698996 C21.4506569,0.915586345 20.441701,1.31393775 19.3666389,1.52988153 C18.5057549,0.597546185 17.2812304,0.0168253012 15.9230278,0.0168253012 C13.3173382,0.0168253012 11.2046078,2.1616506 11.2046078,4.8054739 C11.2046078,5.18043775 11.2462859,5.54666466 11.3267859,5.89686747 C7.40603758,5.69694779 3.92939216,3.78996586 1.60252124,0.892236948 C1.19577451,1.59844177 0.964383987,2.42131727 0.964383987,3.29970482 C0.964383987,4.96159438 1.79798366,6.42795181 3.06275817,7.28585141 C2.28951471,7.25960241 1.56227124,7.04365863 0.925599673,6.68471888 L0.925599673,6.74454217 C0.925599673,9.0644498 2.55254902,11.0006185 4.70981373,11.4412811 C4.31456699,11.549253 3.89778595,11.6090763 3.46661111,11.6090763 C3.16193627,11.6090763 2.86729575,11.5784398 2.57840523,11.5200663 C3.17914869,13.4241486 4.92109804,14.8087831 6.98497222,14.846745 C5.37095098,16.1307329 3.3358268,16.8938233 1.12538399,16.8938233 C0.744531046,16.8938233 0.369390523,16.8704739 3.75816993e-05,16.8281627 C2.08833987,18.1894859 4.56756699,18.9832129 7.23218464,18.9832129 C15.9116029,18.9832129 20.6559167,11.6849618 20.6559167,5.35555823 L20.6400948,4.73546386 C21.567085,4.06424498 22.3690408,3.22091968 23,2.26084739 Z" id="Path"></path>
        </g>
    </g>
</svg>