<?xml version="1.0" encoding="UTF-8"?>
<svg width="40px" height="40px" viewBox="0 0 40 40" version="1.1" xmlns="http://www.w3.org/2000/svg" xmlns:xlink="http://www.w3.org/1999/xlink">
    <!-- Generator: Sketch 53 (72520) - https://sketchapp.com -->
    <title>icons</title>
    <desc>Created with Sketch.</desc>
    <g id="icons" stroke="none" stroke-width="1" fill="none" fill-rule="evenodd">
        <g id="ic-work">
            <rect id="Rectangle" x="0" y="0" width="40" height="40"></rect>
            <g id="Group-2" transform="translate(5.000000, 8.000000)" stroke="#000000" stroke-width="2">
                <path d="M7.69182401,3 C5.40433885,3 4.48776606,3.17699837 3.54123016,3.68321131 C2.73772086,4.11293279 2.1131012,4.73755244 1.68337972,5.54106175 C1.17716678,6.48759765 1.00016841,7.40417043 1.00016841,9.6916556 L1.00016841,16.3083444 C1.00016841,18.5958296 1.17716678,19.5124023 1.68337972,20.4589383 C2.1131012,21.2624476 2.73772086,21.8870672 3.54123016,22.3167887 C4.48776606,22.8230016 5.40433885,23 7.69182401,23 L22.3085128,23 C24.595998,23 25.5125708,22.8230016 26.4591067,22.3167887 C27.262616,21.8870672 27.8872356,21.2624476 28.3169571,20.4589383 C28.82317,19.5124023 29.0001684,18.5958296 29.0001684,16.3083444 L29.0001684,9.6916556 C29.0001684,7.40417043 28.82317,6.48759765 28.3169571,5.54106175 C27.8872356,4.73755244 27.262616,4.11293279 26.4591067,3.68321131 C25.5125708,3.17699837 24.595998,3 22.3085128,3 L7.69182401,3 Z" id="Rectangle"></path>
                <path d="M28.9977629,8 C28.9128321,6.85236295 28.7409133,6.23965291 28.3673027,5.54106175 C27.9375812,4.73755244 27.3129615,4.11293279 26.5094522,3.68321131 C25.5629163,3.17699837 24.6463435,3 22.3588584,3 L7.64147845,3 C5.35399328,3 4.4374205,3.17699837 3.4908846,3.68321131 C2.68737529,4.11293279 2.06275564,4.73755244 1.63303416,5.54106175 C1.25942352,6.23965291 1.0875047,6.85236295 1.00257397,8 C1.0875047,9.14763705 1.25942352,9.76034709 1.63303416,10.4589383 C2.06275564,11.2624476 2.68737529,11.8870672 3.4908846,12.3167887 C4.4374205,12.8230016 5.35399328,13 7.64147845,13 L22.3588584,13 C24.6463435,13 25.5629163,12.8230016 26.5094522,12.3167887 C27.3129615,11.8870672 27.9375812,11.2624476 28.3673027,10.4589383 C28.7409133,9.76034709 28.9128321,9.14763705 28.9977629,8 Z" id="Path"></path>
                <path d="M15.0001684,13 C16.6570227,13 18.0001684,14.3431458 18.0001684,16 L18.0001684,17 L12.0001684,17 L12.0001684,16 C12.0001684,14.3431458 13.3433142,13 15.0001684,13 Z" id="Rectangle" transform="translate(15.000168, 15.000000) scale(1, -1) translate(-15.000168, -15.000000) "></path>
                <path d="M13.0001684,-1 L17.0001684,-1 C18.6570227,-1 20.0001684,0.343145751 20.0001684,2 L20.0001684,3 L10.0001684,3 L10.0001684,2 C10.0001684,0.343145751 11.3433142,-1 13.0001684,-1 Z" id="Rectangle"></path>
            </g>
        </g>
    </g>
</svg>