<?xml version="1.0" encoding="UTF-8"?>
<svg width="113px" height="36px" viewBox="0 0 113 36" version="1.1" xmlns="http://www.w3.org/2000/svg" xmlns:xlink="http://www.w3.org/1999/xlink">
    <!-- Generator: Sketch 52.6 (67491) - http://www.bohemiancoding.com/sketch -->
    <title>Fleck</title>
    <desc>Created with Sketch.</desc>
    <g id="Page-1" stroke="none" stroke-width="1" fill="none" fill-rule="evenodd">
        <g id="Artboard" transform="translate(-78.000000, -35.000000)">
            <g id="Fleck" transform="translate(78.000000, 35.000000)">
                <g id="Group" fill="#A58977">
                    <path d="M79.8849231,35.9983385 C71.6604923,35.9887385 65.6998154,28.44 65.712,18.0496615 C65.7241846,7.65913846 71.7025846,0.1248 79.9270154,0.1344 C82.1817231,0.136984615 84.4231385,0.819692308 86.4094154,2.10886154 L84.7299692,4.69661538 C83.2222154,3.71833846 81.6055385,3.22153846 79.9233231,3.21950769 C73.3825846,3.21175385 68.8072615,9.31163077 68.7971077,18.0533538 C68.7869538,26.7950769 73.3476923,32.9054769 79.8884308,32.9132308 C82.1686154,32.9158154 84.3648,31.9918154 86.2395692,30.2398154 L88.3458462,32.4947077 C85.8878769,34.7905846 82.9622769,36.0018462 79.8849231,35.9983385 Z" id="Path"></path>
                    <path d="M27.4480615,32.5497231 L27.4451077,32.5465846 C26.9767385,32.5299692 26.6014154,32.1476308 26.6014154,31.6752 L26.6014154,31.6748308 L26.6014154,0.653907692 L23.5163077,0.653907692 L23.5163077,35.6350154 L26.6014154,35.6350154 L26.6014154,35.6348308 L41.5654154,35.6350154 L41.5654154,32.5497231 L27.4480615,32.5497231 Z" id="Path"></path>
                    <path d="M48.6018462,32.5497231 C48.1187077,32.5497231 47.7271385,32.1581538 47.7271385,31.6752 L47.7271385,20.5619077 L47.7271385,20.5615385 C47.7271385,20.0785846 48.1187077,19.6872 48.6016615,19.6870154 L60.8412923,19.6870154 L60.8412923,16.6019077 L48.6016615,16.6019077 C48.1187077,16.6019077 47.7271385,16.2103385 47.7271385,15.7273846 L47.7271385,15.7272 L47.7271385,4.61335385 C47.7273231,4.13058462 48.1187077,3.7392 48.6014769,3.7392 L62.6911385,3.7392 L62.6911385,0.653907692 L44.6420308,0.653907692 L44.6420308,35.6350154 L63.3086769,35.6350154 L63.3086769,32.5497231 L48.6018462,32.5497231 Z" id="Path"></path>
                    <path d="M19.0434462,0.653907692 L0.0664615385,0.653907692 L0.0664615385,35.6350154 L3.15156923,35.6350154 L3.15156923,21.0347077 C3.15175385,20.5519385 3.54313846,20.1607385 4.02572308,20.1605538 L17.1904615,20.1605538 L17.1904615,17.0754462 L4.02590769,17.0754462 C3.54313846,17.0752615 3.15175385,16.6838769 3.15175385,16.2009231 L3.15175385,4.61353846 C3.15175385,4.13076923 3.54313846,3.73938462 4.02590769,3.7392 L19.0434462,3.7392 L19.0434462,0.653907692 Z" id="Path"></path>
                    <path d="M100.064123,16.4597538 L110.494154,2.34775385 L108.008123,0.520984615 C108.008123,0.520984615 98.004,14.0536615 94.5744,18.7207385 C94.4721231,18.8599385 94.3962462,18.8366769 94.3962462,18.6655385 C94.3962462,14.1627692 94.3962462,0.654092308 94.3962462,0.654092308 L91.3107692,0.654092308 L91.3107692,35.6352 L94.3958769,35.6352 C94.3958769,35.6352 94.3958769,27.5911385 94.3958769,24.9097846 C94.3958769,24.4881231 94.5603692,23.9492308 94.8179077,23.5988308 C94.8179077,23.5988308 97.0303385,20.5881231 97.6279385,19.7748923 C97.7222769,19.6464 97.8398769,19.6464 97.9351385,19.7761846 C100.987569,23.9302154 109.818277,35.9217231 109.818277,35.9217231 L112.304308,34.0949538 L100.065046,17.4646154 C99.8521846,17.1749538 99.8521846,16.7481231 100.064123,16.4597538 Z" id="Path"></path>
                </g>
                <ellipse id="Oval" fill="#E5DBD7" transform="translate(26.433688, 21.143993) rotate(32.404399) translate(-26.433688, -21.143993) " cx="26.4336882" cy="21.1439934" rx="5.24057432" ry="6.88220001"></ellipse>
                <path d="M23.5163077,16.5420923 L23.5163077,27.3267692 C24.4711385,27.6793846 25.5408,27.6718154 26.6014154,27.3496615 L26.6014154,14.8441846 C25.5293538,15.1017231 24.4585846,15.6845538 23.5163077,16.5420923 Z" id="Path" fill="#A58977" opacity="0.5"></path>
            </g>
        </g>
    </g>
</svg>